# xmcd CD database file
#
# Track frame offsets:
#	150
#	17862
#	31062
#	48987
#	72412
#	91775
#	111612
#	128225
#	149075
#	159275
#	180087
#	194187
#	212637
#
# Disc length: 3163 seconds
#
# Revision: 0
# Processed by: cddbd v1.4PL0 Copyright (c) Steve Scherf et al.
# Submitted via: CDex 1.40Release
#
DISCID=ba0c590d
DTITLE=Johnny Hoy and The Bluefish - Walk The Plank
DYEAR=1998
DGENRE=Blues
TTITLE0=Love Dog
TTITLE1=You You You
TTITLE2=A.T.
TTITLE3=Honkytonk Forgiveness
TTITLE4=I'm Tired
TTITLE5=If You Love Me
TTITLE6=P-Man
TTITLE7=Just Another Wheel
TTITLE8=Opelousas Sostan
TTITLE9=Howlin' for My Darling
TTITLE10=Back Where I Belong
TTITLE11=Rooster Walk
TTITLE12=Rocking My Life Away
EXTD=YEAR: 1998 ID3G: 0
EXTT0=
EXTT1=
EXTT2=
EXTT3=
EXTT4=
EXTT5=
EXTT6=
EXTT7=
EXTT8=
EXTT9=
EXTT10=
EXTT11=
EXTT12=
PLAYORDER=
